<?xml version="1.0" standalone="no"?>
<!DOCTYPE svg PUBLIC "-//W3C//DTD SVG 20010904//EN"
 "http://www.w3.org/TR/2001/REC-SVG-20010904/DTD/svg10.dtd">
<svg version="1.0" xmlns="http://www.w3.org/2000/svg"
 width="3335.000000pt" height="3335.000000pt" viewBox="0 0 3335.000000 3335.000000"
 preserveAspectRatio="xMidYMid meet">
<metadata>
Created by potrace 1.16, written by Peter Selinger 2001-2019
</metadata>
<g transform="translate(0.000000,3335.000000) scale(0.100000,-0.100000)"
fill="#000000" stroke="none">
<path d="M14664 12866 l-1261 -2221 2104 -3 c1156 -1 3050 -1 4208 0 l2105 3
-554 960 -553 960 -2048 3 c-1690 2 -2046 4 -2042 15 4 11 858 1515 933 1643
l24 40 -178 94 c-97 51 -220 116 -272 143 -52 28 -162 86 -245 130 -134 71
-157 80 -220 86 -65 6 -87 15 -305 130 -129 67 -242 129 -250 135 -8 7 -53 33
-100 58 l-85 46 -1261 -2222z"/>
<path d="M10996 14518 c-8 -13 -147 -252 -311 -532 -268 -460 -295 -511 -278
-520 75 -45 191 -105 202 -106 8 0 22 -6 30 -14 9 -8 47 -26 85 -40 38 -15 74
-30 80 -35 6 -5 28 -14 49 -21 20 -6 91 -38 156 -71 66 -32 124 -59 131 -59
19 0 349 -160 628 -304 72 -38 134 -67 135 -65 15 18 1017 1772 1017 1779 0 6
-357 10 -955 10 l-955 0 -14 -22z"/>
<path d="M22590 14414 c-41 -24 -86 -50 -100 -56 -27 -13 -202 -119 -285 -173
-27 -18 -70 -45 -95 -59 -25 -15 -72 -45 -105 -66 -33 -22 -89 -56 -124 -76
-36 -20 -117 -72 -180 -114 -64 -43 -161 -103 -216 -134 -55 -32 -134 -79
-175 -106 -41 -26 -95 -58 -120 -71 -24 -13 -44 -28 -43 -32 1 -4 361 -655
801 -1445 l801 -1437 1017 -3 c866 -2 1015 0 1011 12 -9 22 -2097 3790 -2105
3798 -4 3 -41 -14 -82 -38z"/>
<path d="M9386 11757 c-50 -79 -646 -1111 -646 -1118 0 -5 393 -9 973 -9 l973
0 17 29 c9 16 17 33 17 38 0 5 -35 45 -77 89 -114 117 -331 337 -346 349 -6 6
-46 40 -88 75 -70 60 -135 110 -309 239 -87 64 -317 221 -324 221 -3 0 -27 15
-53 34 -27 19 -65 43 -85 55 l-38 21 -14 -23z"/>
</g>
</svg>
